# xmcd
#
# Track frame offsets:
#	150
#	15882
#	35902
#	50936
#	67497
#	87109
#	103045
#	119810
#	134943
#	154345
#	177204
#	196867
#	217070
#	232561
#	250087
#	266188
#	283897
#	302494
#	325110
#
# Disc length: 4592 seconds
#
# Revision: 0
# Processed by: cddbd v1.5.2PL0 Copyright (c) Steve Scherf et al.
# Submitted via: EasyCDDAExtractor 15.3.0.1
#
DISCID=2611ee13
DTITLE=Anastacia - Top 40 - Her Ultimate Top 40 Collection - CD 2
DYEAR=2017
DGENRE=Pop/Rock
TTITLE0=Sick And Tired
TTITLE1=I Belong To You (Duet With Eros Ramazzotti)
TTITLE2=Boom
TTITLE3=Freak Of Nature
TTITLE4=Best Of You
TTITLE5=I Can Feel You
TTITLE6=Staring At The Sun
TTITLE7=Love Is A Crime
TTITLE8=Seasons Change
TTITLE9=I Dreamed You
TTITLE10=You'll Never Be Alone
TTITLE11=I Ask Of You
TTITLE12=Army Of Me
TTITLE13=Absolutely Positively
TTITLE14=Apology
TTITLE15=Defeated
TTITLE16=Love Is Alive
TTITLE17=Who's Gonna Stop The Rain
TTITLE18=I'm Outta Love (Big Fish Vs. Anastacia)
EXTD=
EXTT0=
EXTT1=
EXTT2=
EXTT3=
EXTT4=
EXTT5=
EXTT6=
EXTT7=
EXTT8=
EXTT9=
EXTT10=
EXTT11=
EXTT12=
EXTT13=
EXTT14=
EXTT15=
EXTT16=
EXTT17=
EXTT18=
PLAYORDER=
